ffmpeg started on 2025-05-13 at 09:53:49
Report written to "D:\Convert\FFMetrics\reports\ssim_report-6.txt"
Log level: 32
Command line:
ffmpeg -hide_banner -nostdin -i "G:\\\xc0\xed\xe8\xec\xe5\\\xce\xed\xe3\xee\xe8\xed\xe3\xe8\\!_35_\xcb\xe5\xf2\xee_2024\\DreamCast-1\\\xd1\xeb\xe8\xf8\xea\xee\xec \xec\xed\xee\xe3\xee \xef\xf0\xee\xe8\xe3\xf0\xe0\xe2\xf8\xe8\xf5 \xe3\xe5\xf0\xee\xe8\xed\xfc!\\[DC] Make Heroine ga Oosugiru - 09_Telegram_HEVC.mkv" -i "G:\\\xc0\xed\xe8\xec\xe5\\\xce\xed\xe3\xee\xe8\xed\xe3\xe8\\!_35_\xcb\xe5\xf2\xee_2024\\DreamCast-1\\\xd1\xeb\xe8\xf8\xea\xee\xec \xec\xed\xee\xe3\xee \xef\xf0\xee\xe8\xe3\xf0\xe0\xe2\xf8\xe8\xf5 \xe3\xe5\xf0\xee\xe8\xed\xfc!\\[DC] Make Heroine ga Oosugiru - 09_Telegram.mp4" -lavfi "[0:v]settb=AVTB,setpts=PTS-STARTPTS,format=pix_fmts=yuv420p10,fps=24000/1001,scale=1920:1080:flags=bicubic[main];[1:v]settb=AVTB,setpts=PTS-STARTPTS,format=pix_fmts=yuv420p,fps=24000/1001,scale=1920:1080:flags=bicubic[ref];[main][ref]ssim=eof_action=endall:stats_file='D\\:/Convert/FFMetrics/logs/ssim_logfile-6.txt'" -f null -
Input #0, matroska,webm, from 'G:\Аниме\Онгоинги\!_35_Лето_2024\DreamCast-1\Слишком много проигравших героинь!\[DC] Make Heroine ga Oosugiru - 09_Telegram_HEVC.mkv':
  Metadata:
    COMPATIBLE_BRANDS: isomiso2avc1mp41
    MAJOR_BRAND     : isom
    MINOR_VERSION   : 512
    ENCODER         : Lavf61.7.100
  Duration: 00:24:06.79, start: -0.021000, bitrate: 1050 kb/s
  Stream #0:0: Video: hevc (Main 10), yuv420p10le(tv, bt709, progressive), 1920x1080 [SAR 1:1 DAR 16:9], 23.98 fps, 23.98 tbr, 1k tbn (default)
      Metadata:
        HANDLER_NAME    : VideoHandler
        VENDOR_ID       : [0][0][0][0]
        ENCODER         : Lavc61.19.100 libx265
        BPS             : 853303
        DURATION        : 00:24:06.611708333
        NUMBER_OF_FRAMES: 34684
        NUMBER_OF_BYTES : 154299814
        _STATISTICS_WRITING_APP: mkvpropedit v66.0.0 ('Josie') 64-bit
        _STATISTICS_WRITING_DATE_UTC: 2025-05-11 11:03:51
        _STATISTICS_TAGS: BPS DURATION NUMBER_OF_FRAMES NUMBER_OF_BYTES
  Stream #0:1: Audio: aac (LC), 48000 Hz, stereo, fltp (default)
      Metadata:
        HANDLER_NAME    : SoundHandler
        VENDOR_ID       : [0][0][0][0]
        ENCODER         : Lavc61.19.100 aac
        BPS             : 193134
        DURATION        : 00:24:06.784000000
        NUMBER_OF_FRAMES: 67819
        NUMBER_OF_BYTES : 34927981
        _STATISTICS_WRITING_APP: mkvpropedit v66.0.0 ('Josie') 64-bit
        _STATISTICS_WRITING_DATE_UTC: 2025-05-11 11:03:51
        _STATISTICS_TAGS: BPS DURATION NUMBER_OF_FRAMES NUMBER_OF_BYTES
Input #1, mov,mp4,m4a,3gp,3g2,mj2, from 'G:\Аниме\Онгоинги\!_35_Лето_2024\DreamCast-1\Слишком много проигравших героинь!\[DC] Make Heroine ga Oosugiru - 09_Telegram.mp4':
  Metadata:
    major_brand     : isom
    minor_version   : 512
    compatible_brands: isomiso2avc1mp41
    encoder         : Lavf61.1.100
  Duration: 00:24:06.74, start: 0.000000, bitrate: 3727 kb/s
  Stream #1:0[0x1](und): Video: h264 (High) (avc1 / 0x31637661), yuv420p(tv, bt709, progressive), 1920x1080 [SAR 1:1 DAR 16:9], 3580 kb/s, 23.98 fps, 23.98 tbr, 24k tbn (default)
      Metadata:
        handler_name    : VideoHandler
        vendor_id       : [0][0][0][0]
        encoder         : Lavc61.3.100 h264_qsv
  Stream #1:1[0x2](und): Audio: aac (HE-AACv2) (mp4a / 0x6134706D), 48000 Hz, stereo, fltp, 144 kb/s (default)
      Metadata:
        handler_name    : SoundHandler
        vendor_id       : [0][0][0][0]
Stream mapping:
  Stream #0:0 (hevc) -> settb:default
  Stream #1:0 (h264) -> settb:default
  ssim:default -> Stream #0:0 (wrapped_avframe)
  Stream #0:1 -> #0:1 (aac (native) -> pcm_s16le (native))
Output #0, null, to 'pipe:':
  Metadata:
    COMPATIBLE_BRANDS: isomiso2avc1mp41
    MAJOR_BRAND     : isom
    MINOR_VERSION   : 512
    encoder         : Lavf61.7.100
  Stream #0:0: Video: wrapped_avframe, yuv420p10le(tv, bt709, progressive), 1920x1080 [SAR 1:1 DAR 16:9], q=2-31, 200 kb/s, 23.98 fps, 23.98 tbn
      Metadata:
        encoder         : Lavc61.19.100 wrapped_avframe
  Stream #0:1: Audio: pcm_s16le, 48000 Hz, stereo, s16, 1536 kb/s (default)
      Metadata:
        HANDLER_NAME    : SoundHandler
        VENDOR_ID       : [0][0][0][0]
        _STATISTICS_TAGS: BPS DURATION NUMBER_OF_FRAMES NUMBER_OF_BYTES
        BPS             : 193134
        DURATION        : 00:24:06.784000000
        NUMBER_OF_FRAMES: 67819
        NUMBER_OF_BYTES : 34927981
        _STATISTICS_WRITING_APP: mkvpropedit v66.0.0 ('Josie') 64-bit
        _STATISTICS_WRITING_DATE_UTC: 2025-05-11 11:03:51
        encoder         : Lavc61.19.100 pcm_s16le
frame=  170 fps=0.0 q=-0.0 size=N/A time=00:00:07.09 bitrate=N/A speed=13.8x    frame=  402 fps=389 q=-0.0 size=N/A time=00:00:16.76 bitrate=N/A speed=16.2x    frame=  627 fps=408 q=-0.0 size=N/A time=00:00:26.15 bitrate=N/A speed=  17x    frame=  881 fps=428 q=-0.0 size=N/A time=00:00:36.74 bitrate=N/A speed=17.8x    frame= 1087 fps=423 q=-0.0 size=N/A time=00:00:45.33 bitrate=N/A speed=17.7x    frame= 1267 fps=411 q=-0.0 size=N/A time=00:00:52.84 bitrate=N/A speed=17.1x    frame= 1446 fps=401 q=-0.0 size=N/A time=00:01:00.31 bitrate=N/A speed=16.7x    frame= 1620 fps=394 q=-0.0 size=N/A time=00:01:07.56 bitrate=N/A speed=16.4x    frame= 1787 fps=385 q=-0.0 size=N/A time=00:01:14.53 bitrate=N/A speed=16.1x    frame= 1952 fps=379 q=-0.0 size=N/A time=00:01:21.41 bitrate=N/A speed=15.8x    frame= 2155 fps=380 q=-0.0 size=N/A time=00:01:29.88 bitrate=N/A speed=15.9x    frame= 2272 fps=367 q=-0.0 size=N/A time=00:01:34.76 bitrate=N/A speed=15.3x    frame= 2454 fps=366 q=-0.0 size=N/A time=00:01:42.35 bitrate=N/A speed=15.3x    frame= 2617 fps=363 q=-0.0 size=N/A time=00:01:49.15 bitrate=N/A speed=15.1x    frame= 2764 fps=358 q=-0.0 size=N/A time=00:01:55.28 bitrate=N/A speed=14.9x    frame= 2972 fps=360 q=-0.0 size=N/A time=00:02:03.95 bitrate=N/A speed=  15x    frame= 3195 fps=364 q=-0.0 size=N/A time=00:02:13.25 bitrate=N/A speed=15.2x    frame= 3423 fps=368 q=-0.0 size=N/A time=00:02:22.76 bitrate=N/A speed=15.4x    frame= 3631 fps=370 q=-0.0 size=N/A time=00:02:31.44 bitrate=N/A speed=15.5x    frame= 3837 fps=372 q=-0.0 size=N/A time=00:02:40.03 bitrate=N/A speed=15.5x    frame= 4074 fps=376 q=-0.0 size=N/A time=00:02:49.91 bitrate=N/A speed=15.7x    frame= 4283 fps=377 q=-0.0 size=N/A time=00:02:58.63 bitrate=N/A speed=15.7x    frame= 4488 fps=378 q=-0.0 size=N/A time=00:03:07.18 bitrate=N/A speed=15.8x    frame= 4678 fps=378 q=-0.0 size=N/A time=00:03:15.11 bitrate=N/A speed=15.8x    frame= 4920 fps=381 q=-0.0 size=N/A time=00:03:25.20 bitrate=N/A speed=15.9x    frame= 5183 fps=386 q=-0.0 size=N/A time=00:03:36.17 bitrate=N/A speed=16.1x    frame= 5429 fps=390 q=-0.0 size=N/A time=00:03:46.43 bitrate=N/A speed=16.3x    frame= 5689 fps=394 q=-0.0 size=N/A time=00:03:57.27 bitrate=N/A speed=16.4x    frame= 5947 fps=397 q=-0.0 size=N/A time=00:04:08.03 bitrate=N/A speed=16.6x    frame= 6201 fps=401 q=-0.0 size=N/A time=00:04:18.63 bitrate=N/A speed=16.7x    frame= 6443 fps=403 q=-0.0 size=N/A time=00:04:28.72 bitrate=N/A speed=16.8x    frame= 6690 fps=405 q=-0.0 size=N/A time=00:04:39.02 bitrate=N/A speed=16.9x    frame= 6956 fps=408 q=-0.0 size=N/A time=00:04:50.12 bitrate=N/A speed=  17x    frame= 7222 fps=412 q=-0.0 size=N/A time=00:05:01.21 bitrate=N/A speed=17.2x    frame= 7488 fps=415 q=-0.0 size=N/A time=00:05:12.31 bitrate=N/A speed=17.3x    frame= 7742 fps=417 q=-0.0 size=N/A time=00:05:22.90 bitrate=N/A speed=17.4x    frame= 8019 fps=420 q=-0.0 size=N/A time=00:05:34.45 bitrate=N/A speed=17.5x    frame= 8249 fps=421 q=-0.0 size=N/A time=00:05:44.05 bitrate=N/A speed=17.5x    frame= 8496 fps=422 q=-0.0 size=N/A time=00:05:54.35 bitrate=N/A speed=17.6x    frame= 8735 fps=423 q=-0.0 size=N/A time=00:06:04.32 bitrate=N/A speed=17.7x    frame= 9008 fps=426 q=-0.0 size=N/A time=00:06:15.70 bitrate=N/A speed=17.8x    frame= 9270 fps=428 q=-0.0 size=N/A time=00:06:26.63 bitrate=N/A speed=17.8x    frame= 9546 fps=430 q=-0.0 size=N/A time=00:06:38.14 bitrate=N/A speed=17.9x    frame= 9794 fps=431 q=-0.0 size=N/A time=00:06:48.49 bitrate=N/A speed=  18x    frame=10031 fps=432 q=-0.0 size=N/A time=00:06:58.37 bitrate=N/A speed=  18x    frame=10289 fps=434 q=-0.0 size=N/A time=00:07:09.13 bitrate=N/A speed=18.1x    frame=10548 fps=435 q=-0.0 size=N/A time=00:07:19.93 bitrate=N/A speed=18.1x    frame=10796 fps=436 q=-0.0 size=N/A time=00:07:30.28 bitrate=N/A speed=18.2x    frame=11061 fps=438 q=-0.0 size=N/A time=00:07:41.33 bitrate=N/A speed=18.2x    frame=11315 fps=439 q=-0.0 size=N/A time=00:07:51.92 bitrate=N/A speed=18.3x    frame=11585 fps=440 q=-0.0 size=N/A time=00:08:03.19 bitrate=N/A speed=18.4x    frame=11836 fps=441 q=-0.0 size=N/A time=00:08:13.65 bitrate=N/A speed=18.4x    frame=12095 fps=442 q=-0.0 size=N/A time=00:08:24.46 bitrate=N/A speed=18.5x    frame=12351 fps=443 q=-0.0 size=N/A time=00:08:35.13 bitrate=N/A speed=18.5x    frame=12604 fps=444 q=-0.0 size=N/A time=00:08:45.69 bitrate=N/A speed=18.5x    frame=12864 fps=445 q=-0.0 size=N/A time=00:08:56.53 bitrate=N/A speed=18.6x    frame=13124 fps=446 q=-0.0 size=N/A time=00:09:07.38 bitrate=N/A speed=18.6x    frame=13371 fps=447 q=-0.0 size=N/A time=00:09:17.68 bitrate=N/A speed=18.6x    frame=13617 fps=447 q=-0.0 size=N/A time=00:09:27.94 bitrate=N/A speed=18.7x    frame=13858 fps=448 q=-0.0 size=N/A time=00:09:37.99 bitrate=N/A speed=18.7x    frame=14111 fps=448 q=-0.0 size=N/A time=00:09:48.54 bitrate=N/A speed=18.7x    frame=14368 fps=449 q=-0.0 size=N/A time=00:09:59.26 bitrate=N/A speed=18.7x    frame=14626 fps=450 q=-0.0 size=N/A time=00:10:10.02 bitrate=N/A speed=18.8x    frame=14880 fps=451 q=-0.0 size=N/A time=00:10:20.62 bitrate=N/A speed=18.8x    frame=15157 fps=452 q=-0.0 size=N/A time=00:10:32.17 bitrate=N/A speed=18.8x    frame=15419 fps=453 q=-0.0 size=N/A time=00:10:43.10 bitrate=N/A speed=18.9x    frame=15696 fps=454 q=-0.0 size=N/A time=00:10:54.65 bitrate=N/A speed=18.9x    frame=15969 fps=455 q=-0.0 size=N/A time=00:11:06.04 bitrate=N/A speed=  19x    frame=16245 fps=456 q=-0.0 size=N/A time=00:11:17.55 bitrate=N/A speed=  19x    frame=16533 fps=458 q=-0.0 size=N/A time=00:11:29.56 bitrate=N/A speed=19.1x    frame=16807 fps=459 q=-0.0 size=N/A time=00:11:40.99 bitrate=N/A speed=19.1x    frame=17083 fps=460 q=-0.0 size=N/A time=00:11:52.50 bitrate=N/A speed=19.2x    frame=17346 fps=461 q=-0.0 size=N/A time=00:12:03.47 bitrate=N/A speed=19.2x    frame=17600 fps=461 q=-0.0 size=N/A time=00:12:14.06 bitrate=N/A speed=19.2x    frame=17859 fps=462 q=-0.0 size=N/A time=00:12:24.86 bitrate=N/A speed=19.2x    frame=18135 fps=462 q=-0.0 size=N/A time=00:12:36.38 bitrate=N/A speed=19.3x    frame=18410 fps=463 q=-0.0 size=N/A time=00:12:47.85 bitrate=N/A speed=19.3x    frame=18679 fps=464 q=-0.0 size=N/A time=00:12:59.06 bitrate=N/A speed=19.4x    frame=18943 fps=465 q=-0.0 size=N/A time=00:13:10.08 bitrate=N/A speed=19.4x    frame=19210 fps=465 q=-0.0 size=N/A time=00:13:21.21 bitrate=N/A speed=19.4x    frame=19484 fps=466 q=-0.0 size=N/A time=00:13:32.64 bitrate=N/A speed=19.4x    frame=19732 fps=466 q=-0.0 size=N/A time=00:13:42.98 bitrate=N/A speed=19.4x    frame=19997 fps=467 q=-0.0 size=N/A time=00:13:54.04 bitrate=N/A speed=19.5x    frame=20245 fps=467 q=-0.0 size=N/A time=00:14:04.38 bitrate=N/A speed=19.5x    frame=20507 fps=467 q=-0.0 size=N/A time=00:14:15.31 bitrate=N/A speed=19.5x    frame=20764 fps=468 q=-0.0 size=N/A time=00:14:26.03 bitrate=N/A speed=19.5x    frame=21008 fps=468 q=-0.0 size=N/A time=00:14:36.20 bitrate=N/A speed=19.5x    frame=21251 fps=468 q=-0.0 size=N/A time=00:14:46.34 bitrate=N/A speed=19.5x    frame=21516 fps=468 q=-0.0 size=N/A time=00:14:57.39 bitrate=N/A speed=19.5x    frame=21774 fps=469 q=-0.0 size=N/A time=00:15:08.15 bitrate=N/A speed=19.6x    frame=22024 fps=469 q=-0.0 size=N/A time=00:15:18.58 bitrate=N/A speed=19.6x    frame=22263 fps=469 q=-0.0 size=N/A time=00:15:28.55 bitrate=N/A speed=19.6x    frame=22536 fps=470 q=-0.0 size=N/A time=00:15:39.93 bitrate=N/A speed=19.6x    frame=22774 fps=469 q=-0.0 size=N/A time=00:15:49.86 bitrate=N/A speed=19.6x    frame=23034 fps=470 q=-0.0 size=N/A time=00:16:00.70 bitrate=N/A speed=19.6x    frame=23305 fps=470 q=-0.0 size=N/A time=00:16:12.01 bitrate=N/A speed=19.6x    frame=23565 fps=471 q=-0.0 size=N/A time=00:16:22.85 bitrate=N/A speed=19.6x    frame=23818 fps=471 q=-0.0 size=N/A time=00:16:33.40 bitrate=N/A speed=19.6x    frame=24067 fps=471 q=-0.0 size=N/A time=00:16:43.79 bitrate=N/A speed=19.6x    frame=24323 fps=471 q=-0.0 size=N/A time=00:16:54.47 bitrate=N/A speed=19.7x    frame=24548 fps=471 q=-0.0 size=N/A time=00:17:03.85 bitrate=N/A speed=19.6x    frame=24783 fps=471 q=-0.0 size=N/A time=00:17:13.65 bitrate=N/A speed=19.6x    frame=25013 fps=471 q=-0.0 size=N/A time=00:17:23.25 bitrate=N/A speed=19.6x    frame=25237 fps=470 q=-0.0 size=N/A time=00:17:32.59 bitrate=N/A speed=19.6x    frame=25471 fps=470 q=-0.0 size=N/A time=00:17:42.35 bitrate=N/A speed=19.6x    frame=25660 fps=469 q=-0.0 size=N/A time=00:17:50.23 bitrate=N/A speed=19.6x    frame=25899 fps=469 q=-0.0 size=N/A time=00:18:00.20 bitrate=N/A speed=19.6x    frame=26116 fps=469 q=-0.0 size=N/A time=00:18:09.25 bitrate=N/A speed=19.5x    frame=26353 fps=468 q=-0.0 size=N/A time=00:18:19.13 bitrate=N/A speed=19.5x    frame=26611 fps=469 q=-0.0 size=N/A time=00:18:29.90 bitrate=N/A speed=19.6x    frame=26869 fps=469 q=-0.0 size=N/A time=00:18:40.66 bitrate=N/A speed=19.6x    frame=27147 fps=470 q=-0.0 size=N/A time=00:18:52.25 bitrate=N/A speed=19.6x    frame=27398 fps=470 q=-0.0 size=N/A time=00:19:02.72 bitrate=N/A speed=19.6x    frame=27645 fps=470 q=-0.0 size=N/A time=00:19:13.02 bitrate=N/A speed=19.6x    frame=27895 fps=470 q=-0.0 size=N/A time=00:19:23.45 bitrate=N/A speed=19.6x    frame=28147 fps=470 q=-0.0 size=N/A time=00:19:33.96 bitrate=N/A speed=19.6x    frame=28388 fps=470 q=-0.0 size=N/A time=00:19:44.01 bitrate=N/A speed=19.6x    frame=28635 fps=470 q=-0.0 size=N/A time=00:19:54.31 bitrate=N/A speed=19.6x    frame=28893 fps=471 q=-0.0 size=N/A time=00:20:05.07 bitrate=N/A speed=19.6x    frame=29167 fps=471 q=-0.0 size=N/A time=00:20:16.50 bitrate=N/A speed=19.6x    frame=29412 fps=471 q=-0.0 size=N/A time=00:20:26.72 bitrate=N/A speed=19.7x    frame=29671 fps=471 q=-0.0 size=N/A time=00:20:37.52 bitrate=N/A speed=19.7x    frame=29930 fps=472 q=-0.0 size=N/A time=00:20:48.33 bitrate=N/A speed=19.7x    frame=30192 fps=472 q=-0.0 size=N/A time=00:20:59.25 bitrate=N/A speed=19.7x    frame=30475 fps=472 q=-0.0 size=N/A time=00:21:11.06 bitrate=N/A speed=19.7x    frame=30754 fps=473 q=-0.0 size=N/A time=00:21:22.69 bitrate=N/A speed=19.7x    frame=31016 fps=473 q=-0.0 size=N/A time=00:21:33.62 bitrate=N/A speed=19.7x    frame=31289 fps=474 q=-0.0 size=N/A time=00:21:45.01 bitrate=N/A speed=19.8x    frame=31537 fps=474 q=-0.0 size=N/A time=00:21:55.35 bitrate=N/A speed=19.8x    frame=31781 fps=474 q=-0.0 size=N/A time=00:22:05.53 bitrate=N/A speed=19.8x    frame=32009 fps=474 q=-0.0 size=N/A time=00:22:15.04 bitrate=N/A speed=19.7x    frame=32270 fps=474 q=-0.0 size=N/A time=00:22:25.92 bitrate=N/A speed=19.8x    frame=32505 fps=474 q=-0.0 size=N/A time=00:22:35.72 bitrate=N/A speed=19.8x    frame=32725 fps=473 q=-0.0 size=N/A time=00:22:44.90 bitrate=N/A speed=19.7x    frame=32924 fps=473 q=-0.0 size=N/A time=00:22:53.20 bitrate=N/A speed=19.7x    frame=33133 fps=472 q=-0.0 size=N/A time=00:23:01.92 bitrate=N/A speed=19.7x    frame=33308 fps=471 q=-0.0 size=N/A time=00:23:09.22 bitrate=N/A speed=19.6x    frame=33460 fps=470 q=-0.0 size=N/A time=00:23:15.56 bitrate=N/A speed=19.6x    frame=33613 fps=469 q=-0.0 size=N/A time=00:23:21.94 bitrate=N/A speed=19.5x    frame=33815 fps=468 q=-0.0 size=N/A time=00:23:30.36 bitrate=N/A speed=19.5x    frame=34024 fps=468 q=-0.0 size=N/A time=00:23:39.08 bitrate=N/A speed=19.5x    frame=34213 fps=467 q=-0.0 size=N/A time=00:23:46.96 bitrate=N/A speed=19.5x    frame=34384 fps=466 q=-0.0 size=N/A time=00:23:54.09 bitrate=N/A speed=19.4x    frame=34610 fps=466 q=-0.0 size=N/A time=00:24:03.52 bitrate=N/A speed=19.4x    [Parsed_ssim_10 @ 00000225ebacee80] SSIM Y:0.993835 (22.100455) U:0.993958 (22.187932) V:0.994063 (22.264305) All:0.993893 (22.141885)
[out#0/null @ 00000225dedbd040] video:14903KiB audio:271276KiB subtitle:0KiB other streams:0KiB global headers:0KiB muxing overhead: unknown
frame=34684 fps=466 q=-0.0 Lsize=N/A time=00:24:06.61 bitrate=N/A speed=19.4x    
